<?xml version="1.0" encoding="UTF-8"?>
<svg width="512px" height="512px" viewBox="0 0 512 512" version="1.1" xmlns="http://www.w3.org/2000/svg" xmlns:xlink="http://www.w3.org/1999/xlink">
    <!-- Generator: Sketch 48.1 (47250) - http://www.bohemiancoding.com/sketch -->
    <title>GooglePlay</title>
    <desc>Created with Sketch.</desc>
    <defs>
        <path d="M193.09982,186.040189 C193.09982,197.466484 213.051589,203.179545 252.955726,203.179545 C262.799918,203.179545 270.095058,202.124826 274.841365,200.015357 C287.322395,194.038525 302.659768,191.050155 320.853945,191.050155 C339.048122,191.050155 348.145073,195.708497 348.145073,205.025322 C348.145073,208.716894 346.606942,214.12233 343.530631,221.24179 C340.454321,228.361251 338.169097,232.711967 336.674889,234.294069 C335.180681,235.876171 329.511566,238.029556 319.667374,240.754288 C309.823182,243.47902 303.450921,244.973205 300.5504,245.236889 C297.649879,245.500573 295.716227,245.720306 294.749387,245.896095 C293.782546,246.071884 292.639934,246.24767 291.321515,246.42346 C290.003097,246.599249 287.058673,247.082662 282.488155,247.873713 C277.917637,248.664764 274.577693,248.620817 272.468224,247.741872 C214.282015,276.395503 174.290584,307.861288 152.49273,342.140172 C142.648537,357.609617 137.726515,370.881499 137.726515,381.956215 C137.726515,399.359341 149.767891,408.060773 173.851004,408.060773 C192.660443,408.060773 216.567409,400.67774 245.572618,385.911451 C274.577828,371.145163 300.286605,353.258885 322.699722,332.252082 C345.112838,311.245279 356.319228,293.007428 356.319228,277.537983 C356.319228,272.615887 360.010745,270.154876 367.393889,270.154876 C384.445436,270.154876 392.971082,280.2626 392.971082,300.478352 C392.971082,309.970966 388.840099,321.26525 380.578009,334.361541 C372.315919,347.457833 360.801903,360.729714 346.035614,374.177584 C331.269326,387.625454 314.833287,400.150243 296.727005,411.752327 C278.620722,423.354411 258.537114,432.846882 236.475575,440.230027 C214.414037,447.613171 195.73672,451.304688 180.443065,451.304688 C165.149409,451.304688 152.800406,449.854449 143.395687,446.953928 C133.990967,444.053407 125.157695,439.702691 116.895605,433.901649 C98.9651121,421.420619 90,402.523569 90,377.209932 C90,363.498378 93.6915167,349.567297 101.074661,335.416271 C108.457805,321.265245 118.126063,308.388883 130.079725,296.786799 C152.053369,274.988944 175.608761,256.882934 200.74661,242.468224 C164.534045,234.206134 146.428034,215.572763 146.428034,186.567554 C146.428034,153.870772 171.565506,123.987065 221.841202,96.9155366 C249.791677,81.973459 280.11485,71.2504818 312.811631,64.7462833 C328.281076,61.5820786 341.201385,60 351.572945,60 C372.667643,60 388.576322,61.6699719 399.29946,65.0099657 C405.803658,68.1741703 411.077254,72.6127798 415.120404,78.3259271 C419.163555,84.0390744 421.185099,88.9610967 421.185099,93.0921417 C421.185099,97.2231867 420.65774,100.95865 419.603005,104.298644 C418.54827,107.638638 416.790405,110.275435 414.329357,112.209116 C410.813574,114.845953 406.858377,116.867498 402.463649,118.273811 C398.06892,119.680124 395.520016,120.559057 394.816859,120.910635 C381.105305,126.711677 369.327609,129.612155 359.483417,129.612155 C341.904502,129.612155 332.324137,127.32693 330.742035,122.756412 C331.093613,118.185894 333.027265,112.912299 336.543048,106.935468 C319.843079,107.638625 302.528107,111.022515 284.597614,117.08724 C266.667121,123.151966 251.153961,130.27132 238.05767,138.445515 C224.961378,146.619711 214.194454,155.10141 205.756575,163.890867 C197.318696,172.680325 193.09982,180.063358 193.09982,186.040189 Z" id="path-1"></path>
        <filter x="-9.8%" y="-7.8%" width="119.6%" height="116.6%" filterUnits="objectBoundingBox" id="filter-2">
            <feOffset dx="0" dy="2" in="SourceAlpha" result="shadowOffsetOuter1"></feOffset>
            <feGaussianBlur stdDeviation="10.5" in="shadowOffsetOuter1" result="shadowBlurOuter1"></feGaussianBlur>
            <feColorMatrix values="0 0 0 0 0   0 0 0 0 0   0 0 0 0 0  0 0 0 0.5 0" type="matrix" in="shadowBlurOuter1"></feColorMatrix>
        </filter>
        <polygon id="path-3" points="0 0 319 0 319 329 0 329"></polygon>
    </defs>
    <g id="iOS-&amp;-Android" stroke="none" stroke-width="1" fill="none" fill-rule="evenodd">
        <g id="Notes" transform="translate(-780.000000, -67.000000)"></g>
        <g id="GooglePlay">
            <g id="E">
                <use fill="black" fill-opacity="1" filter="url(#filter-2)" xlink:href="#path-1"></use>
                <use fill="#08E3FF" fill-rule="evenodd" xlink:href="#path-1"></use>
            </g>
            <g id="ic_touch_app_black_24px" transform="translate(219.000000, 183.000000)">
                <mask id="mask-4" fill="white">
                    <use xlink:href="#path-3"></use>
                </mask>
                <g id="a"></g>
                <path d="M120.383333,154.613333 L120.383333,103.5 C120.383333,84.64 135.242,69.3333333 153.55,69.3333333 C171.858,69.3333333 186.716667,84.64 186.716667,103.5 L186.716667,154.613333 C202.769333,143.543333 213.25,124.82 213.25,103.5 C213.25,69.47 186.584,42 153.55,42 C120.516,42 93.85,69.47 93.85,103.5 C93.85,124.82 104.330667,143.543333 120.383333,154.613333 Z M250.927333,217.89 L190.696667,187.003333 C188.441333,186.046667 186.053333,185.5 183.532667,185.5 L173.45,185.5 L173.45,103.5 C173.45,92.1566667 164.561333,83 153.55,83 C142.538667,83 133.65,92.1566667 133.65,103.5 L133.65,250.28 L88.1453333,240.44 C87.084,240.303333 86.1553333,240.03 84.9613333,240.03 C80.8486667,240.03 77.134,241.806667 74.4806667,244.54 L64,255.473333 L129.537333,322.986667 C133.119333,326.676667 138.160667,329 143.6,329 L233.680667,329 C243.630667,329 251.325333,321.483333 252.784667,311.506667 L262.734667,239.483333 C262.867333,238.526667 263,237.57 263,236.75 C263,228.276667 257.958667,220.896667 250.927333,217.89 Z" id="Shape" fill="#0088FE" fill-rule="nonzero" mask="url(#mask-4)"></path>
            </g>
        </g>
    </g>
</svg>